<?xml version="1.0" standalone="no"?><svg xmlns="http://www.w3.org/2000/svg" viewBox="0 0 1440 320"><path fill="#6488ea" fill-opacity="1" d="M0,96L18.5,112C36.9,128,74,160,111,197.3C147.7,235,185,277,222,256C258.5,235,295,149,332,106.7C369.2,64,406,64,443,58.7C480,53,517,43,554,48C590.8,53,628,75,665,122.7C701.5,171,738,245,775,229.3C812.3,213,849,107,886,53.3C923.1,0,960,0,997,26.7C1033.8,53,1071,107,1108,122.7C1144.6,139,1182,117,1218,90.7C1255.4,64,1292,32,1329,42.7C1366.2,53,1403,107,1422,133.3L1440,160L1440,320L1421.5,320C1403.1,320,1366,320,1329,320C1292.3,320,1255,320,1218,320C1181.5,320,1145,320,1108,320C1070.8,320,1034,320,997,320C960,320,923,320,886,320C849.2,320,812,320,775,320C738.5,320,702,320,665,320C627.7,320,591,320,554,320C516.9,320,480,320,443,320C406.2,320,369,320,332,320C295.4,320,258,320,222,320C184.6,320,148,320,111,320C73.8,320,37,320,18,320L0,320Z"></path></svg>